<svg width="40" height="40" viewBox="0 0 40 40" fill="none" xmlns="http://www.w3.org/2000/svg">
<path d="M23.0037 28.464C23.5876 28.464 24.0842 28.2598 24.4934 27.8515C24.9027 27.4432 25.1068 26.9466 25.1059 26.3618C25.1049 25.7769 24.9008 25.2808 24.4934 24.8734C24.0861 24.466 23.5895 24.2614 23.0037 24.2596C22.4179 24.2577 21.9217 24.4623 21.5153 24.8734C21.1089 25.2845 20.9043 25.7806 20.9015 26.3618C20.8987 26.9429 21.1033 27.4395 21.5153 27.8515C21.9273 28.2635 22.4235 28.4677 23.0037 28.464ZM14.9452 27.4129C15.2255 27.6931 15.5525 27.8333 15.9263 27.8333C16.3 27.8333 16.627 27.6931 16.9073 27.4129L24.0548 20.2654C24.3351 19.9851 24.4752 19.6581 24.4752 19.2844C24.4752 18.9106 24.3351 18.5836 24.0548 18.3033C23.7745 18.023 23.4419 17.8829 23.0569 17.8829C22.672 17.8829 22.3389 18.023 22.0577 18.3033L14.9452 25.4158C14.6649 25.6961 14.5248 26.0291 14.5248 26.415C14.5248 26.8009 14.6649 27.1335 14.9452 27.4129ZM15.9963 21.4566C16.5803 21.4566 17.0769 21.2525 17.4861 20.8442C17.8953 20.4359 18.0995 19.9393 18.0985 19.3544C18.0976 18.7695 17.8935 18.2734 17.4861 17.8661C17.0787 17.4587 16.5821 17.2541 15.9963 17.2522C15.4105 17.2504 14.9144 17.455 14.508 17.8661C14.1016 18.2772 13.8969 18.7733 13.8941 19.3544C13.8913 19.9356 14.0959 20.4322 14.508 20.8442C14.92 21.2562 15.4161 21.4604 15.9963 21.4566ZM19.5 34.0698C16.3 34.0698 13.6316 32.972 11.4948 30.7764C9.35806 28.5807 8.2892 25.8479 8.28827 22.5778C8.28827 21.1296 8.61528 19.6814 9.2693 18.2333C9.92331 16.7851 10.7408 15.3953 11.7219 14.0639C12.7029 12.7325 13.7657 11.4829 14.9102 10.315C16.0547 9.14708 17.1175 8.13101 18.0985 7.26678C18.2854 7.07991 18.5017 6.94584 18.7474 6.86456C18.9931 6.78327 19.244 6.74216 19.5 6.74123C19.756 6.74029 20.0073 6.7814 20.254 6.86456C20.5006 6.94771 20.7165 7.08178 20.9015 7.26678C21.8825 8.13101 22.9453 9.14708 24.0898 10.315C25.2343 11.4829 26.2971 12.7325 27.2781 14.0639C28.2592 15.3953 29.0767 16.7851 29.7307 18.2333C30.3847 19.6814 30.7117 21.1296 30.7117 22.5778C30.7117 25.8479 29.6433 28.5807 27.5066 30.7764C25.3698 32.972 22.7009 34.0698 19.5 34.0698ZM19.5 31.2669C21.9292 31.2669 23.938 30.4433 25.5263 28.7961C27.1146 27.1489 27.9088 25.0761 27.9088 22.5778C27.9088 20.8727 27.202 18.9457 25.7884 16.7967C24.3748 14.6478 22.2786 12.3004 19.5 9.75438C16.7204 12.3004 14.6243 14.6478 13.2116 16.7967C11.7989 18.9457 11.0921 20.8727 11.0912 22.5778C11.0912 25.0771 11.8854 27.1503 13.4737 28.7975C15.062 30.4447 17.0708 31.2678 19.5 31.2669Z" fill="#0D99FF"/>
</svg>
