<svg width="30" height="30" viewBox="0 0 30 30" fill="none" xmlns="http://www.w3.org/2000/svg">
<path d="M8.78844 7.07995C8.78844 6.95932 8.84692 6.84362 8.95101 6.75832C9.05511 6.67302 9.19629 6.62509 9.34351 6.62509L20.4449 6.62509C20.5921 6.62509 20.7333 6.67302 20.8374 6.75832C20.9415 6.84362 21 6.95932 21 7.07995C21 7.20059 20.9415 7.31628 20.8374 7.40159C20.7333 7.48689 20.5921 7.53481 20.4449 7.53481L9.34351 7.53481C9.19629 7.53481 9.05511 7.48689 8.95101 7.40159C8.84692 7.31628 8.78844 7.20059 8.78844 7.07995ZM16.0602 8.83252C15.7478 8.58397 15.3296 8.44495 14.8942 8.44495C14.4588 8.44495 14.0406 8.58397 13.7282 8.83252L8.95462 12.6706C8.90085 12.7121 8.85772 12.7619 8.82775 12.8173C8.79778 12.8726 8.78159 12.9322 8.78011 12.9927C8.77863 13.0532 8.7919 13.1134 8.81914 13.1696C8.84638 13.2259 8.88705 13.2771 8.93875 13.3203C8.99045 13.3635 9.05216 13.3978 9.12025 13.4212C9.18835 13.4447 9.26146 13.4567 9.33531 13.4567C9.40916 13.4567 9.48226 13.4446 9.55032 13.4211C9.61839 13.3976 9.68007 13.3633 9.73172 13.32L14.3391 9.61579L14.3391 22.5451C14.3391 22.6658 14.3976 22.7815 14.5017 22.8668C14.6058 22.9521 14.747 23 14.8942 23C15.0414 23 15.1826 22.9521 15.2867 22.8668C15.3908 22.7815 15.4493 22.6658 15.4493 22.5451L15.4493 9.61579L20.0564 13.3201C20.1621 13.4016 20.3027 13.446 20.4479 13.4436C20.5932 13.4412 20.7314 13.3923 20.8331 13.3073C20.9348 13.2223 20.9918 13.1081 20.9919 12.989C20.992 12.87 20.9351 12.7557 20.8335 12.6707L16.0602 8.83252Z" fill="#FF0D0D"/>
</svg>
