<svg width="30" height="30" viewBox="0 0 30 30" fill="none" xmlns="http://www.w3.org/2000/svg">
<path d="M20.9916 22.5452C20.9916 22.6658 20.9331 22.7815 20.829 22.8668C20.7249 22.9521 20.5837 23 20.4365 23H9.3351C9.18789 23 9.0467 22.9521 8.94261 22.8668C8.83851 22.7815 8.78003 22.6658 8.78003 22.5452C8.78003 22.4245 8.83851 22.3088 8.94261 22.2235C9.0467 22.1382 9.18789 22.0903 9.3351 22.0903H20.4365C20.5837 22.0903 20.7249 22.1382 20.829 22.2235C20.9331 22.3088 20.9916 22.4245 20.9916 22.5452ZM13.7198 20.7926C14.0322 21.0411 14.4504 21.1802 14.8858 21.1802C15.3212 21.1802 15.7394 21.0411 16.0518 20.7926L20.8254 16.9545C20.8792 16.913 20.9223 16.8632 20.9523 16.8079C20.9822 16.7526 20.9984 16.6929 20.9999 16.6324C21.0014 16.5719 20.9881 16.5118 20.9609 16.4555C20.9336 16.3993 20.893 16.348 20.8413 16.3048C20.7896 16.2616 20.7279 16.2273 20.6598 16.2039C20.5917 16.1805 20.5186 16.1684 20.4447 16.1684C20.3709 16.1685 20.2978 16.1806 20.2297 16.204C20.1616 16.2275 20.1 16.2619 20.0483 16.3051L15.4409 20.0093L15.4409 7.07998C15.4409 6.95934 15.3824 6.84365 15.2783 6.75835C15.1742 6.67304 15.033 6.62512 14.8858 6.62512C14.7386 6.62512 14.5974 6.67304 14.4933 6.75835C14.3892 6.84365 14.3307 6.95934 14.3307 7.07998L14.3307 20.0093L9.72365 16.3051C9.61788 16.2235 9.47731 16.1791 9.33209 16.1815C9.18687 16.1839 9.04858 16.2328 8.94688 16.3178C8.84519 16.4028 8.7882 16.517 8.78813 16.6361C8.78807 16.7551 8.84494 16.8694 8.94655 16.9545L13.7198 20.7926Z" fill="#0D99FF"/>
</svg>
