<svg width="40" height="40" viewBox="0 0 40 40" fill="none" xmlns="http://www.w3.org/2000/svg">
<path d="M19.5 6.39026C20.6632 6.39016 21.7823 6.83509 22.6279 7.63379C23.4736 8.4325 23.9816 9.52446 24.0478 10.6858L24.0548 10.945L24.0562 22.0895L24.1683 22.1862C25.4732 23.3514 26.2951 24.9626 26.4723 26.7031L26.4989 27.0563L26.5073 27.4123C26.5075 28.5668 26.2225 29.7035 25.6775 30.7213C25.1325 31.7391 24.3444 32.6065 23.3834 33.2464C22.4223 33.8862 21.3181 34.2786 20.1688 34.3888C19.0195 34.499 17.8608 34.3235 16.7957 33.878C15.7306 33.4324 14.7921 32.7306 14.0636 31.8349C13.3351 30.9391 12.8393 29.8773 12.6201 28.7437C12.4009 27.6102 12.4652 26.4401 12.8073 25.3373C13.1494 24.2346 13.7586 23.2335 14.5809 22.423L14.8331 22.1848L14.9438 22.0895L14.9452 10.945C14.945 9.82568 15.357 8.74544 16.1025 7.91049C16.848 7.07554 17.8748 6.54434 18.9871 6.41829L19.2421 6.39727L19.5 6.39026ZM19.5 8.49246C18.8843 8.49251 18.2911 8.72416 17.8383 9.1414C17.3855 9.55864 17.1062 10.1309 17.0559 10.7446L17.0474 10.945V23.1308L16.6144 23.4447C15.787 24.0465 15.1685 24.892 14.8455 25.8628C14.5225 26.8336 14.5111 27.8811 14.813 28.8587C15.1148 29.8362 15.7148 30.6949 16.529 31.3146C17.3431 31.9342 18.3306 32.2838 19.3532 32.3144C20.3759 32.3449 21.3825 32.055 22.2322 31.485C23.0819 30.9151 23.732 30.0938 24.0918 29.136C24.4515 28.1782 24.5027 27.1319 24.2382 26.1435C23.9737 25.1552 23.4068 24.2743 22.6169 23.6241L22.3856 23.4461L21.9554 23.1308L21.9526 10.945C21.9526 10.2946 21.6942 9.67074 21.2342 9.2108C20.7743 8.75085 20.1505 8.49246 19.5 8.49246ZM19.5 14.7991C19.7788 14.7991 20.0461 14.9098 20.2432 15.1069C20.4404 15.304 20.5511 15.5714 20.5511 15.8502V24.0698C21.35 24.3209 22.0326 24.8498 22.4753 25.5607C22.918 26.2716 23.0916 27.1174 22.9645 27.9452C22.8375 28.773 22.4183 29.5279 21.7828 30.0733C21.1473 30.6187 20.3375 30.9186 19.5 30.9186C18.6626 30.9186 17.8528 30.6187 17.2173 30.0733C16.5818 29.5279 16.1625 28.773 16.0355 27.9452C15.9085 27.1174 16.082 26.2716 16.5247 25.5607C16.9674 24.8498 17.65 24.3209 18.4489 24.0698V15.8502C18.4489 15.5714 18.5597 15.304 18.7568 15.1069C18.9539 14.9098 19.2212 14.7991 19.5 14.7991Z" fill="#0D99FF"/>
</svg>
